<svg id="svg" version="1.1" xmlns="http://www.w3.org/2000/svg" xmlns:xlink="http://www.w3.org/1999/xlink" width="400" height="212.41685144124168" viewBox="0, 0, 400,212.41685144124168"><g id="svgg"><path id="path0" d="M1.699 0.238 C 1.407 0.354,0.905 0.701,0.584 1.008 L 0.000 1.566 0.000 106.361 L 0.000 211.156 0.566 211.792 L 1.132 212.427 199.941 212.427 L 398.749 212.427 399.375 211.742 L 400.000 211.058 400.000 106.407 L 400.000 1.757 399.539 1.171 C 399.286 0.849,398.764 0.454,398.378 0.293 C 397.502 -0.073,2.620 -0.128,1.699 0.238 M150.672 93.258 C 151.298 93.751,151.560 94.650,151.289 95.380 C 151.136 95.794,151.309 96.252,152.237 97.891 C 153.608 100.311,153.629 100.478,152.563 100.478 C 151.540 100.478,151.154 100.116,150.084 98.156 C 149.619 97.304,149.041 96.532,148.801 96.440 C 148.171 96.201,147.846 95.737,147.706 94.877 C 147.456 93.332,149.410 92.265,150.672 93.258 M148.911 94.105 C 148.187 94.829,148.626 95.675,149.665 95.557 C 150.438 95.469,150.695 94.422,150.057 93.956 C 149.553 93.587,149.411 93.606,148.911 94.105 M154.699 94.951 C 155.404 95.505,157.246 98.734,157.258 99.435 C 157.267 100.027,153.480 106.851,153.141 106.851 C 152.757 106.851,152.079 105.482,152.184 104.920 C 152.240 104.617,152.913 103.327,153.678 102.052 C 155.346 99.276,155.324 99.751,153.903 97.292 C 152.594 95.025,152.537 94.810,153.213 94.680 C 154.082 94.512,154.161 94.527,154.699 94.951 M146.630 95.114 C 147.057 95.591,150.823 101.782,150.823 102.007 C 150.823 102.101,150.389 102.177,149.858 102.177 C 148.645 102.177,148.288 101.837,146.901 99.361 C 145.292 96.488,145.433 96.578,142.739 96.705 C 140.011 96.835,139.815 96.760,140.318 95.780 C 140.839 94.762,140.880 94.749,143.727 94.746 C 145.908 94.743,146.347 94.799,146.630 95.114 M139.896 98.170 C 140.276 98.513,140.646 98.558,142.691 98.513 C 145.358 98.453,145.459 98.491,144.995 99.390 C 144.518 100.312,144.074 100.478,142.091 100.478 C 140.792 100.478,140.246 100.565,139.969 100.815 C 139.261 101.456,138.039 101.444,137.384 100.789 C 135.668 99.072,138.093 96.544,139.896 98.170 M175.233 98.847 C 176.224 99.503,176.784 100.635,176.819 102.053 L 176.845 103.133 175.820 103.199 C 174.621 103.275,174.190 103.000,174.190 102.156 C 174.190 101.352,173.394 100.811,172.500 101.007 C 171.286 101.274,171.216 101.582,171.216 106.695 L 171.216 111.331 171.738 111.852 C 172.657 112.772,174.190 112.309,174.190 111.113 C 174.190 110.277,174.623 110.002,175.820 110.078 L 176.845 110.143 176.833 111.133 C 176.793 114.440,173.378 116.189,170.473 114.392 C 168.528 113.188,168.424 112.768,168.498 106.411 L 168.561 100.977 169.131 100.116 C 170.398 98.202,173.336 97.591,175.233 98.847 M185.572 98.544 C 187.615 99.472,187.836 100.348,187.748 107.161 L 187.679 112.512 187.081 113.416 C 185.679 115.532,182.205 115.767,180.483 113.862 C 179.423 112.689,179.395 112.495,179.395 106.426 L 179.395 101.009 179.973 100.025 C 181.008 98.264,183.502 97.604,185.572 98.544 M196.238 98.474 C 198.533 100.082,199.173 109.608,197.249 113.539 C 196.532 115.006,196.112 115.166,193.193 115.090 L 190.866 115.029 190.810 106.851 C 190.779 102.354,190.800 98.554,190.856 98.407 C 191.019 97.984,195.621 98.041,196.238 98.474 M208.447 99.001 C 208.817 100.567,208.452 100.903,206.378 100.903 L 204.567 100.903 204.567 103.133 L 204.567 105.364 205.938 105.364 L 207.309 105.364 207.455 106.139 C 207.731 107.608,207.406 108.010,205.883 108.083 L 204.552 108.146 204.613 110.207 L 204.673 112.268 206.434 112.329 C 208.488 112.402,208.850 112.739,208.480 114.237 L 208.285 115.029 205.606 115.088 C 204.133 115.121,202.675 115.052,202.367 114.934 L 201.806 114.721 201.806 106.686 C 201.806 100.625,201.870 98.587,202.066 98.391 C 202.253 98.204,203.167 98.147,205.298 98.189 L 208.269 98.247 208.447 99.001 M218.481 98.538 C 222.393 100.319,222.196 104.068,217.924 109.124 C 217.016 110.198,216.122 111.369,215.938 111.726 L 215.602 112.374 218.028 112.374 C 220.716 112.374,220.712 112.371,220.712 113.836 C 220.712 115.098,220.594 115.135,216.574 115.135 C 211.735 115.135,211.378 114.892,212.544 112.388 C 213.439 110.465,214.560 108.762,216.113 106.966 C 217.541 105.314,218.581 103.541,218.585 102.751 C 218.596 100.782,216.226 100.398,215.333 102.225 C 214.715 103.490,212.787 103.797,212.506 102.674 C 211.842 100.029,215.776 97.306,218.481 98.538 M230.226 98.474 C 232.961 100.389,233.131 112.344,230.455 114.596 C 229.724 115.211,225.341 115.431,224.790 114.881 C 224.424 114.515,224.424 98.762,224.790 98.396 C 225.196 97.990,229.626 98.053,230.226 98.474 M241.344 98.441 C 242.241 98.817,242.901 99.512,243.325 100.527 C 243.854 101.794,243.796 111.727,243.252 112.905 C 241.853 115.938,237.316 115.975,235.773 112.967 C 235.301 112.046,235.153 101.715,235.595 100.545 C 236.350 98.547,239.150 97.522,241.344 98.441 M252.936 98.587 C 254.150 99.174,254.904 100.435,254.970 101.991 L 255.019 103.133 253.993 103.199 C 252.794 103.275,252.363 103.000,252.363 102.156 C 252.363 101.352,251.567 100.811,250.673 101.007 C 249.461 101.273,249.389 101.587,249.389 106.638 C 249.389 111.690,249.461 112.003,250.673 112.270 C 251.567 112.466,252.363 111.925,252.363 111.120 C 252.363 110.331,252.814 109.979,253.827 109.979 C 255.237 109.979,255.445 110.509,254.789 112.433 C 253.626 115.847,248.678 116.051,247.081 112.751 C 246.482 111.515,246.384 102.111,246.954 100.744 C 247.872 98.549,250.729 97.518,252.936 98.587 M263.257 98.433 C 264.647 99.025,265.849 101.079,265.197 101.748 C 264.666 102.292,263.271 102.146,262.655 101.482 C 261.832 100.595,260.617 100.790,260.350 101.851 C 260.123 102.756,260.783 103.861,262.783 105.929 C 264.895 108.112,265.534 109.264,265.534 110.891 C 265.534 115.820,258.944 116.666,257.661 111.901 C 257.223 110.273,259.814 109.652,260.317 111.264 C 260.785 112.765,262.772 112.479,262.772 110.911 C 262.772 109.961,262.276 109.262,260.073 107.107 C 255.598 102.729,257.998 96.192,263.257 98.433 M137.867 98.882 C 137.514 99.308,137.765 100.205,138.282 100.369 C 139.226 100.669,139.996 99.508,139.310 98.821 C 138.957 98.469,138.183 98.502,137.867 98.882 M159.757 100.272 C 160.957 100.914,160.980 102.890,159.793 103.444 C 159.474 103.592,159.071 103.784,158.895 103.870 C 158.720 103.955,158.051 104.916,157.408 106.005 C 156.085 108.247,155.867 108.411,155.403 107.512 C 154.901 106.542,154.988 106.110,156.028 104.397 C 156.593 103.466,156.984 102.564,156.984 102.191 C 156.984 100.553,158.422 99.557,159.757 100.272 M158.167 101.371 C 157.752 101.963,158.158 102.708,158.895 102.708 C 159.633 102.708,160.039 101.963,159.624 101.371 C 159.444 101.113,159.116 100.903,158.895 100.903 C 158.675 100.903,158.347 101.113,158.167 101.371 M182.950 101.123 C 182.132 101.451,182.023 102.200,182.092 107.020 C 182.155 111.501,182.163 111.568,182.658 111.968 C 183.331 112.513,183.876 112.479,184.502 111.852 L 185.024 111.331 185.024 106.638 L 185.024 101.946 184.502 101.424 C 183.944 100.866,183.705 100.820,182.950 101.123 M193.460 101.035 C 193.137 101.357,193.286 111.878,193.617 112.153 C 194.709 113.059,195.449 111.472,195.592 107.913 C 195.789 103.010,194.770 99.724,193.460 101.035 M227.448 101.035 C 227.112 101.371,227.276 111.879,227.622 112.167 C 228.846 113.183,229.537 111.116,229.505 106.532 C 229.474 102.163,228.616 99.867,227.448 101.035 M238.832 101.157 C 238.069 101.526,237.918 102.435,237.918 106.677 C 237.918 111.193,238.089 111.998,239.101 112.252 C 240.773 112.672,241.165 111.436,241.070 106.040 L 240.998 101.928 240.402 101.415 C 239.750 100.855,239.532 100.819,238.832 101.157 M145.512 101.981 C 145.512 103.163,144.459 103.664,141.971 103.667 C 138.100 103.671,138.259 103.597,136.898 106.022 C 135.511 108.491,135.476 108.522,134.907 107.723 C 134.252 106.803,134.356 106.316,135.702 103.983 L 136.928 101.859 139.361 101.742 C 144.976 101.472,145.512 101.493,145.512 101.981 M140.496 105.661 C 140.903 106.520,140.816 106.832,139.573 108.961 C 139.011 109.922,138.776 110.544,138.857 110.854 C 139.158 112.005,137.898 113.293,136.696 113.063 C 135.005 112.740,134.762 110.282,136.355 109.622 C 136.819 109.430,137.278 108.848,138.095 107.415 C 139.790 104.445,139.886 104.375,140.496 105.661 M161.005 105.494 C 161.550 106.417,161.510 106.572,160.118 108.960 C 158.656 111.467,159.042 111.312,154.288 111.312 C 149.714 111.312,149.537 111.241,150.698 109.890 C 151.209 109.295,151.219 109.293,154.255 109.224 C 157.781 109.142,157.497 109.292,159.014 106.714 C 160.336 104.467,160.383 104.439,161.005 105.494 M143.601 107.741 C 143.601 108.160,143.105 109.248,142.220 110.773 C 140.557 113.636,140.571 113.287,142.025 115.724 C 143.385 118.002,143.391 118.377,142.067 118.281 C 141.122 118.212,138.502 114.751,138.502 113.569 C 138.502 113.210,140.454 109.543,142.180 106.660 L 142.612 105.938 143.106 106.512 C 143.392 106.845,143.601 107.363,143.601 107.741 M136.537 110.479 C 135.786 110.917,136.151 112.161,137.031 112.161 C 138.069 112.161,138.352 110.950,137.429 110.456 C 136.968 110.209,137.002 110.208,136.537 110.479 M147.161 110.941 C 147.308 111.058,147.918 112.027,148.517 113.092 C 150.419 116.479,150.006 116.198,153.068 116.198 C 155.946 116.198,155.991 116.222,155.283 117.368 C 154.773 118.193,154.271 118.322,151.564 118.322 C 149.996 118.322,149.508 118.246,149.162 117.950 C 148.792 117.633,145.257 111.787,144.948 110.983 C 144.752 110.471,146.531 110.437,147.161 110.941 M158.586 112.258 C 159.580 113.252,159.146 114.933,157.768 115.420 C 157.321 115.579,155.921 115.049,155.921 114.721 C 155.921 114.577,154.984 114.498,153.279 114.498 C 150.405 114.498,150.178 114.405,150.740 113.455 C 151.262 112.570,151.860 112.375,154.073 112.367 C 155.454 112.362,156.149 112.269,156.440 112.048 C 157.067 111.574,157.993 111.665,158.586 112.258 M144.383 112.690 C 144.631 112.864,145.225 113.719,145.703 114.589 C 146.236 115.560,146.818 116.317,147.209 116.548 C 148.791 117.483,148.243 120.021,146.460 120.021 C 145.169 120.021,144.089 118.544,144.635 117.524 C 144.806 117.205,144.596 116.703,143.568 114.972 C 142.865 113.787,142.351 112.718,142.426 112.596 C 142.630 112.267,143.864 112.327,144.383 112.690 M156.680 112.920 C 156.289 113.312,156.267 113.529,156.566 114.087 C 156.992 114.883,158.258 114.475,158.258 113.542 C 158.258 112.648,157.322 112.278,156.680 112.920 M145.664 117.391 C 144.950 118.105,146.126 119.596,146.898 118.955 C 147.506 118.450,147.223 117.377,146.461 117.303 C 146.106 117.268,145.748 117.308,145.664 117.391 " stroke="none" fill="#7165e8" fill-rule="evenodd"></path><path id="path1" d="M0.797 0.150 C 1.059 0.201,1.490 0.201,1.753 0.150 C 2.015 0.099,1.800 0.058,1.275 0.058 C 0.749 0.058,0.534 0.099,0.797 0.150 M398.247 0.150 C 398.510 0.201,398.941 0.201,399.203 0.150 C 399.466 0.099,399.251 0.058,398.725 0.058 C 398.200 0.058,397.985 0.099,398.247 0.150 M148.231 93.478 C 147.289 94.420,147.588 95.979,148.801 96.440 C 149.041 96.532,149.619 97.304,150.084 98.156 C 151.154 100.116,151.540 100.478,152.563 100.478 C 153.629 100.478,153.608 100.311,152.237 97.891 C 151.309 96.252,151.136 95.794,151.289 95.380 C 151.995 93.473,149.678 92.031,148.231 93.478 M150.057 93.956 C 150.695 94.422,150.438 95.469,149.665 95.557 C 148.626 95.675,148.187 94.829,148.911 94.105 C 149.411 93.606,149.553 93.587,150.057 93.956 M153.213 94.680 C 152.537 94.810,152.594 95.025,153.903 97.292 C 155.324 99.751,155.346 99.276,153.678 102.052 C 152.913 103.327,152.240 104.617,152.184 104.920 C 152.079 105.482,152.757 106.851,153.141 106.851 C 153.480 106.851,157.267 100.027,157.258 99.435 C 157.246 98.734,155.404 95.505,154.699 94.951 C 154.161 94.527,154.082 94.512,153.213 94.680 M140.922 94.905 C 140.792 94.991,140.520 95.384,140.318 95.780 C 139.815 96.760,140.011 96.835,142.739 96.705 C 145.433 96.578,145.292 96.488,146.901 99.361 C 148.288 101.837,148.645 102.177,149.858 102.177 C 150.389 102.177,150.823 102.101,150.823 102.007 C 150.823 101.782,147.057 95.591,146.630 95.114 C 146.279 94.723,141.464 94.546,140.922 94.905 M137.912 97.833 C 136.002 98.636,136.737 101.535,138.782 101.261 C 139.230 101.200,139.765 101.000,139.969 100.815 C 140.246 100.565,140.792 100.478,142.091 100.478 C 144.074 100.478,144.518 100.312,144.995 99.390 C 145.459 98.491,145.358 98.453,142.691 98.513 C 140.646 98.558,140.276 98.513,139.896 98.170 C 139.284 97.618,138.671 97.514,137.912 97.833 M170.830 98.682 C 170.101 99.052,169.499 99.561,169.131 100.116 L 168.561 100.977 168.498 106.411 C 168.424 112.768,168.528 113.188,170.473 114.392 C 173.378 116.189,176.793 114.440,176.833 111.133 L 176.845 110.143 175.820 110.078 C 174.623 110.002,174.190 110.277,174.190 111.113 C 174.190 112.309,172.657 112.772,171.738 111.852 L 171.216 111.331 171.216 106.695 C 171.216 101.582,171.286 101.274,172.500 101.007 C 173.394 100.811,174.190 101.352,174.190 102.156 C 174.190 103.000,174.621 103.275,175.820 103.199 L 176.845 103.133 176.819 102.053 C 176.741 98.910,173.725 97.213,170.830 98.682 M181.460 98.591 C 180.842 98.897,180.367 99.355,179.973 100.025 L 179.395 101.009 179.395 106.426 C 179.395 112.495,179.423 112.689,180.483 113.862 C 182.205 115.767,185.679 115.532,187.081 113.416 L 187.679 112.512 187.748 107.161 C 187.821 101.522,187.714 100.559,186.899 99.523 C 185.839 98.176,183.210 97.725,181.460 98.591 M190.856 98.407 C 190.800 98.554,190.779 102.354,190.810 106.851 L 190.866 115.029 193.193 115.090 C 196.112 115.166,196.532 115.006,197.249 113.539 C 199.173 109.608,198.533 100.082,196.238 98.474 C 195.621 98.041,191.019 97.984,190.856 98.407 M202.066 98.391 C 201.870 98.587,201.806 100.625,201.806 106.686 L 201.806 114.721 202.367 114.934 C 202.675 115.052,204.133 115.121,205.606 115.088 L 208.285 115.029 208.480 114.237 C 208.850 112.739,208.488 112.402,206.434 112.329 L 204.673 112.268 204.613 110.207 L 204.552 108.146 205.883 108.083 C 207.406 108.010,207.731 107.608,207.455 106.139 L 207.309 105.364 205.938 105.364 L 204.567 105.364 204.567 103.133 L 204.567 100.903 206.378 100.903 C 208.452 100.903,208.817 100.567,208.447 99.001 L 208.269 98.247 205.298 98.189 C 203.167 98.147,202.253 98.204,202.066 98.391 M215.030 98.588 C 212.974 99.606,211.596 102.917,213.067 103.302 C 213.939 103.530,214.924 103.061,215.333 102.225 C 216.226 100.398,218.596 100.782,218.585 102.751 C 218.581 103.541,217.541 105.314,216.113 106.966 C 214.560 108.762,213.439 110.465,212.544 112.388 C 211.378 114.892,211.735 115.135,216.574 115.135 C 220.594 115.135,220.712 115.098,220.712 113.836 C 220.712 112.371,220.716 112.374,218.028 112.374 L 215.602 112.374 215.938 111.726 C 216.122 111.369,217.016 110.198,217.924 109.124 C 220.142 106.498,220.634 105.709,221.039 104.124 C 222.025 100.265,218.396 96.922,215.030 98.588 M224.790 98.396 C 224.424 98.762,224.424 114.515,224.790 114.881 C 225.341 115.431,229.724 115.211,230.455 114.596 C 233.131 112.344,232.961 100.389,230.226 98.474 C 229.626 98.053,225.196 97.990,224.790 98.396 M237.600 98.442 C 236.808 98.796,235.894 99.755,235.595 100.545 C 235.153 101.715,235.301 112.046,235.773 112.967 C 237.316 115.975,241.853 115.938,243.252 112.905 C 243.796 111.727,243.854 101.794,243.325 100.527 C 242.463 98.464,239.757 97.479,237.600 98.442 M249.071 98.644 C 246.785 99.718,246.628 100.234,246.628 106.671 C 246.628 111.487,246.657 111.874,247.081 112.751 C 248.678 116.051,253.626 115.847,254.789 112.433 C 255.445 110.509,255.237 109.979,253.827 109.979 C 252.814 109.979,252.363 110.331,252.363 111.120 C 252.363 111.925,251.567 112.466,250.673 112.270 C 249.461 112.003,249.389 111.690,249.389 106.638 C 249.389 101.587,249.461 101.273,250.673 101.007 C 251.567 100.811,252.363 101.352,252.363 102.156 C 252.363 103.000,252.794 103.275,253.993 103.199 L 255.019 103.133 254.970 101.991 C 254.838 98.902,251.977 97.279,249.071 98.644 M260.205 98.344 C 256.742 99.394,256.677 103.784,260.073 107.107 C 262.276 109.262,262.772 109.961,262.772 110.911 C 262.772 112.479,260.785 112.765,260.317 111.264 C 259.814 109.652,257.223 110.273,257.661 111.901 C 258.944 116.666,265.534 115.820,265.534 110.891 C 265.534 109.264,264.895 108.112,262.783 105.929 C 260.783 103.861,260.123 102.756,260.350 101.851 C 260.617 100.790,261.832 100.595,262.655 101.482 C 263.826 102.745,265.736 102.101,265.218 100.617 C 264.520 98.618,262.429 97.670,260.205 98.344 M139.310 98.821 C 139.996 99.508,139.226 100.669,138.282 100.369 C 137.765 100.205,137.514 99.308,137.867 98.882 C 138.183 98.502,138.957 98.469,139.310 98.821 M157.911 100.302 C 157.361 100.567,156.984 101.338,156.984 102.191 C 156.984 102.564,156.593 103.466,156.028 104.397 C 154.988 106.110,154.901 106.542,155.403 107.512 C 155.867 108.411,156.085 108.247,157.408 106.005 C 158.051 104.916,158.720 103.955,158.895 103.870 C 159.071 103.784,159.474 103.592,159.793 103.444 C 160.611 103.062,160.939 101.987,160.499 101.135 C 159.967 100.107,158.973 99.787,157.911 100.302 M159.624 101.371 C 160.039 101.963,159.633 102.708,158.895 102.708 C 158.158 102.708,157.752 101.963,158.167 101.371 C 158.347 101.113,158.675 100.903,158.895 100.903 C 159.116 100.903,159.444 101.113,159.624 101.371 M184.502 101.424 L 185.024 101.946 185.024 106.638 L 185.024 111.331 184.502 111.852 C 183.876 112.479,183.331 112.513,182.658 111.968 C 182.163 111.568,182.155 111.501,182.092 107.020 C 182.023 102.200,182.132 101.451,182.950 101.123 C 183.705 100.820,183.944 100.866,184.502 101.424 M194.945 101.551 C 195.720 103.178,195.863 109.667,195.160 111.344 C 194.804 112.192,194.105 112.558,193.617 112.153 C 193.286 111.878,193.137 101.357,193.460 101.035 C 193.788 100.707,194.692 101.022,194.945 101.551 M229.080 102.177 C 230.354 105.875,229.239 113.509,227.622 112.167 C 227.276 111.879,227.112 101.371,227.448 101.035 C 227.957 100.526,228.687 101.037,229.080 102.177 M240.402 101.415 L 240.998 101.928 241.070 106.040 C 241.110 108.301,241.058 110.477,240.955 110.875 C 240.540 112.477,238.804 112.807,238.214 111.396 C 237.851 110.527,237.793 103.024,238.142 102.024 C 238.531 100.909,239.508 100.646,240.402 101.415 M139.361 101.742 L 136.928 101.859 135.702 103.983 C 134.356 106.316,134.252 106.803,134.907 107.723 C 135.476 108.522,135.511 108.491,136.898 106.022 C 138.259 103.597,138.100 103.671,141.971 103.667 C 144.228 103.664,144.282 103.653,144.892 103.043 C 146.420 101.515,146.021 101.422,139.361 101.742 M139.519 105.103 C 139.346 105.305,138.706 106.345,138.095 107.415 C 137.278 108.848,136.819 109.430,136.355 109.622 C 134.762 110.282,135.005 112.740,136.696 113.063 C 137.898 113.293,139.158 112.005,138.857 110.854 C 138.776 110.544,139.011 109.922,139.573 108.961 C 140.816 106.832,140.903 106.520,140.496 105.661 C 140.057 104.736,139.908 104.650,139.519 105.103 M159.014 106.714 C 157.497 109.292,157.781 109.142,154.255 109.224 C 151.219 109.293,151.209 109.295,150.698 109.890 C 149.537 111.241,149.714 111.312,154.288 111.312 C 159.042 111.312,158.656 111.467,160.118 108.960 C 161.510 106.572,161.550 106.417,161.005 105.494 C 160.383 104.439,160.336 104.467,159.014 106.714 M142.180 106.660 C 140.454 109.543,138.502 113.210,138.502 113.569 C 138.502 114.751,141.122 118.212,142.067 118.281 C 143.391 118.377,143.385 118.002,142.025 115.724 C 140.571 113.287,140.557 113.636,142.220 110.773 C 143.749 108.140,143.896 107.431,143.106 106.512 L 142.612 105.938 142.180 106.660 M137.429 110.456 C 138.352 110.950,138.069 112.161,137.031 112.161 C 136.151 112.161,135.786 110.917,136.537 110.479 C 137.002 110.208,136.968 110.209,137.429 110.456 M145.443 110.619 C 144.704 110.726,144.629 110.528,146.892 114.419 C 149.222 118.426,149.098 118.322,151.564 118.322 C 154.271 118.322,154.773 118.193,155.283 117.368 C 155.991 116.222,155.946 116.198,153.068 116.198 C 150.006 116.198,150.419 116.479,148.517 113.092 C 147.142 110.645,146.855 110.413,145.443 110.619 M156.440 112.048 C 156.149 112.269,155.454 112.362,154.073 112.367 C 151.860 112.375,151.262 112.570,150.740 113.455 C 150.178 114.405,150.405 114.498,153.279 114.498 C 154.984 114.498,155.921 114.577,155.921 114.721 C 155.921 115.517,157.791 115.609,158.630 114.854 C 160.152 113.484,158.070 110.816,156.440 112.048 M142.426 112.596 C 142.351 112.718,142.865 113.787,143.568 114.972 C 144.596 116.703,144.806 117.205,144.635 117.524 C 144.089 118.544,145.169 120.021,146.460 120.021 C 148.243 120.021,148.791 117.483,147.209 116.548 C 146.818 116.317,146.236 115.560,145.703 114.589 C 144.605 112.588,143.025 111.627,142.426 112.596 M158.003 112.841 C 158.612 113.450,158.147 114.498,157.267 114.498 C 156.822 114.498,156.346 113.964,156.346 113.465 C 156.346 112.789,157.512 112.350,158.003 112.841 M147.170 118.021 C 147.255 118.899,146.761 119.324,146.037 118.995 C 145.520 118.759,145.289 117.766,145.664 117.391 C 146.104 116.952,147.106 117.371,147.170 118.021 " stroke="none" fill="#f0f0f4" fill-rule="evenodd"></path></g></svg>