<?xml version="1.0" standalone="no"?>
<!DOCTYPE svg PUBLIC "-//W3C//DTD SVG 20010904//EN"
 "http://www.w3.org/TR/2001/REC-SVG-20010904/DTD/svg10.dtd">
<svg version="1.0" xmlns="http://www.w3.org/2000/svg"
 width="856.000000pt" height="478.000000pt" viewBox="0 0 856.000000 478.000000"
 preserveAspectRatio="xMidYMid meet">

<g transform="translate(0.000000,478.000000) scale(0.100000,-0.100000)"
fill="#000000" stroke="none">
<path d="M3405 3928 c-3 -7 -4 -375 -3 -818 l3 -805 83 -3 82 -3 0 821 0 820
-80 0 c-55 0 -82 -4 -85 -12z"/>
<path d="M3695 3928 c-3 -7 -4 -375 -3 -818 l3 -805 793 -3 792 -2 -2 817 -3
818 -788 3 c-625 2 -789 0 -792 -10z m975 -378 c11 -6 24 -19 30 -30 11 -21 4
-40 -130 -355 -211 -496 -205 -485 -243 -485 -29 0 -57 29 -57 60 0 14 29 93
64 175 35 83 107 254 161 380 107 256 125 282 175 255z m-456 -156 c9 -8 16
-28 16 -43 0 -23 -20 -46 -109 -127 -60 -55 -110 -101 -110 -104 -1 -3 46 -48
104 -100 109 -98 125 -124 106 -166 -8 -18 -18 -24 -43 -24 -28 0 -53 19 -171
127 -133 122 -158 155 -140 186 4 9 70 72 146 141 141 130 167 144 201 110z
m746 -110 c74 -70 139 -133 143 -141 5 -8 6 -25 3 -37 -7 -30 -271 -270 -301
-274 -66 -9 -88 57 -37 106 15 15 65 62 110 104 l83 78 -111 102 c-116 107
-129 130 -93 170 34 38 61 24 203 -108z"/>
<path d="M1699 1886 c-283 -76 -380 -460 -170 -675 68 -70 146 -104 252 -109
99 -5 156 9 233 58 42 27 47 34 44 62 -4 45 -30 58 -71 34 -110 -65 -172 -78
-261 -52 -102 30 -188 130 -206 241 -18 113 19 217 106 294 92 81 211 90 319
25 64 -38 86 -42 109 -18 30 30 16 56 -50 97 -86 53 -205 70 -305 43z"/>
<path d="M3296 1868 c-13 -18 -16 -51 -16 -155 l0 -133 -54 35 c-129 86 -288
42 -361 -99 -26 -51 -30 -70 -29 -135 0 -93 26 -154 90 -210 65 -57 121 -71
290 -71 136 0 144 1 158 22 14 19 16 72 16 373 0 381 -2 395 -55 395 -13 0
-31 -10 -39 -22z m-110 -317 c48 -22 77 -59 94 -120 14 -54 6 -102 -25 -157
-60 -104 -225 -104 -293 -1 -22 34 -27 52 -27 107 0 56 4 73 28 109 49 74 140
100 223 62z"/>
<path d="M4328 1879 c-49 -14 -117 -74 -139 -123 -35 -76 -19 -156 30 -156 26
0 51 32 51 66 0 87 103 154 184 120 40 -17 75 -77 76 -129 0 -47 -33 -95 -199
-290 -226 -263 -224 -267 74 -267 207 0 235 7 235 54 0 48 -25 56 -178 56 -78
0 -142 2 -142 5 0 3 56 70 125 148 80 90 137 165 157 205 31 63 31 66 20 130
-13 78 -50 137 -104 165 -45 22 -138 30 -190 16z"/>
<path d="M4806 1868 c-23 -32 -24 -713 -2 -744 13 -17 27 -19 148 -18 159 0
220 14 296 65 109 72 163 182 164 329 0 181 -97 320 -258 370 -52 16 -94 20
-199 20 -127 0 -135 -1 -149 -22z m339 -97 c112 -50 167 -140 167 -274 0 -72
-4 -88 -34 -146 -56 -111 -141 -154 -291 -149 l-82 3 -3 289 c-2 225 1 292 10
298 25 17 180 3 233 -21z"/>
<path d="M2339 1644 c-59 -18 -131 -82 -160 -141 -33 -69 -32 -179 4 -249 29
-57 82 -109 136 -132 48 -21 174 -21 222 0 54 23 114 82 140 136 32 67 33 178
0 244 -60 125 -205 185 -342 142z m171 -93 c19 -10 49 -37 65 -60 26 -37 30
-51 30 -110 0 -56 -4 -74 -27 -108 -68 -102 -228 -102 -296 0 -23 34 -27 52
-27 107 0 56 4 73 27 108 51 76 152 104 228 63z"/>
<path d="M3716 1644 c-71 -22 -140 -95 -162 -170 -33 -114 -5 -225 75 -297 59
-53 104 -69 192 -70 65 -1 85 4 135 29 47 23 60 34 62 56 2 19 -3 30 -18 38
-18 10 -32 7 -83 -15 -50 -23 -69 -27 -114 -22 -63 7 -114 36 -142 81 -41 66
-42 66 162 66 212 0 230 5 235 63 7 86 -51 188 -132 229 -53 27 -146 33 -210
12z m167 -89 c37 -18 65 -53 77 -95 l9 -30 -166 0 -165 0 7 27 c9 36 40 75 78
95 40 22 119 23 160 3z"/>
<path d="M5724 1642 c-87 -30 -142 -88 -170 -179 -18 -55 -13 -142 10 -197 23
-54 92 -123 144 -143 58 -22 172 -23 223 -1 180 78 220 338 71 468 -76 67
-179 86 -278 52z m176 -92 c145 -74 122 -309 -34 -349 -119 -30 -226 55 -226
179 0 142 138 232 260 170z"/>
<path d="M6414 1649 c-142 -41 -223 -203 -179 -355 31 -109 146 -194 260 -194
80 0 195 58 195 99 0 42 -40 52 -92 22 -97 -57 -215 -23 -259 73 -45 100 -4
223 88 262 63 27 146 11 187 -35 32 -36 86 -22 86 22 0 26 -68 84 -119 102
-49 16 -119 18 -167 4z"/>
<path d="M6972 1651 c-97 -25 -148 -100 -123 -181 17 -58 73 -95 172 -117 118
-25 158 -54 145 -106 -16 -66 -193 -71 -251 -7 -23 25 -57 25 -80 0 -40 -44
12 -96 124 -125 190 -50 345 51 302 197 -15 48 -75 90 -154 108 -96 22 -147
42 -158 62 -48 89 130 122 223 41 21 -18 68 -13 82 9 15 25 -19 67 -79 98 -53
26 -144 36 -203 21z"/>
</g>
</svg>
